<?xml version="1.0" encoding="utf-8"?>
<!-- Generator: Adobe Illustrator 24.0.1, SVG Export Plug-In . SVG Version: 6.00 Build 0)  -->
<svg version="1.1" id="Layer_1" xmlns="http://www.w3.org/2000/svg" xmlns:xlink="http://www.w3.org/1999/xlink" x="0px" y="0px"
	 viewBox="0 0 32 32" style="enable-background:new 0 0 32 32;" xml:space="preserve">
<style type="text/css">
	.st0{fill:#D43100;}
	.st1{fill:#FFFFFF;}
</style>
<g>
	<g>
		<path d="M2206.42-83.9c19.24-2.84,42.1-4.98,67.15-4.98c45.37,0,77.67,10.31,99.09,29.87c21.78,19.56,34.48,47.29,34.48,86.05
			c0,39.11-12.34,71.11-35.21,93.16c-22.87,22.4-60.61,34.49-108.16,34.49c-22.5,0-41.38-1.07-57.35-2.84V-83.9z M2237.99,128.01
			c7.99,1.42,19.6,1.78,31.94,1.78c67.51,0,104.17-36.98,104.17-101.69c0.36-56.53-32.3-92.45-99.09-92.45
			c-16.33,0-28.67,1.42-37.02,3.2V128.01z"/>
		<path d="M2466.29,72.19c0.73,42.31,28.31,59.73,60.25,59.73c22.87,0,36.66-3.91,48.64-8.89l5.44,22.4
			c-11.25,4.98-30.49,10.67-58.44,10.67c-54.08,0-86.38-34.84-86.38-86.76c0-51.91,31.21-92.8,82.39-92.8
			c57.35,0,72.59,49.42,72.59,81.07c0,6.4-0.73,11.38-1.09,14.58H2466.29z M2559.93,49.79c0.36-19.91-8.35-50.85-44.28-50.85
			c-32.3,0-46.46,29.16-49,50.85H2559.93z"/>
		<path d="M2642.68-19.54l34.48,96.71c5.81,15.64,10.53,29.87,14.16,44.09h1.09c3.99-14.22,9.07-28.45,14.88-44.09l34.12-96.71
			h33.39l-68.96,172.09h-30.49l-66.78-172.09H2642.68z"/>
		<path d="M2819.07,72.19c0.73,42.31,28.31,59.73,60.25,59.73c22.87,0,36.66-3.91,48.64-8.89l5.44,22.4
			c-11.25,4.98-30.49,10.67-58.44,10.67c-54.08,0-86.38-34.84-86.38-86.76c0-51.91,31.22-92.8,82.39-92.8
			c57.35,0,72.59,49.42,72.59,81.07c0,6.4-0.73,11.38-1.09,14.58H2819.07z M2912.72,49.79c0.36-19.91-8.35-50.85-44.28-50.85
			c-32.3,0-46.46,29.16-49,50.85H2912.72z"/>
		<path d="M2983.12-99.9h31.94v252.45h-31.94V-99.9z"/>
		<path d="M3227.75,65.08c0,63.65-45.01,91.38-87.47,91.38c-47.55,0-84.21-34.13-84.21-88.54c0-57.6,38.47-91.38,87.11-91.38
			C3193.64-23.45,3227.75,12.46,3227.75,65.08z M3088.38,66.86c0,37.69,22.14,66.13,53.36,66.13c30.49,0,53.35-28.09,53.35-66.85
			c0-29.16-14.88-66.13-52.63-66.13C3104.71,0.01,3088.38,34.15,3088.38,66.86z"/>
		<path d="M3268.04,36.64c0-22.04-0.73-39.82-1.45-56.18h28.67l1.45,29.51h0.73c13.07-20.98,33.75-33.42,62.43-33.42
			c42.47,0,74.41,35.2,74.41,87.47c0,61.87-38.47,92.45-79.85,92.45c-23.23,0-43.56-9.96-54.08-27.02h-0.73v93.51h-31.58V36.64z
			 M3299.62,82.5c0,4.62,0.73,8.89,1.45,12.8c5.81,21.69,25.04,36.62,47.91,36.62c33.75,0,53.36-27.02,53.36-66.49
			c0-34.49-18.51-64-52.27-64c-21.78,0-42.1,15.29-48.27,38.76c-1.09,3.91-2.18,8.53-2.18,12.8V82.5z"/>
		<path d="M3492.34,72.19c0.73,42.31,28.31,59.73,60.25,59.73c22.87,0,36.66-3.91,48.64-8.89l5.44,22.4
			c-11.25,4.98-30.49,10.67-58.44,10.67c-54.08,0-86.39-34.84-86.39-86.76c0-51.91,31.21-92.8,82.39-92.8
			c57.35,0,72.59,49.42,72.59,81.07c0,6.4-0.73,11.38-1.09,14.58H3492.34z M3585.98,49.79c0.36-19.91-8.35-50.85-44.28-50.85
			c-32.3,0-46.46,29.16-49,50.85H3585.98z"/>
		<path d="M3656.39,34.15c0-20.27-0.36-37.69-1.45-53.69h27.95l1.09,33.78h1.45c7.98-23.11,27.22-37.69,48.64-37.69
			c3.63,0,6.17,0.36,9.07,1.07V7.12c-3.27-0.71-6.53-1.07-10.89-1.07c-22.5,0-38.47,16.71-42.83,40.18
			c-0.73,4.27-1.45,9.24-1.45,14.58v91.73h-31.58V34.15z"/>
	</g>
	<g>
		<path d="M2212.34,251.74v63.29h-8.73v-63.29H2212.34z"/>
		<path d="M2228.3,281.88c0-4.69-0.1-8.55-0.4-12.3h7.83l0.5,7.51h0.2c2.41-4.32,8.03-8.55,16.06-8.55
			c6.72,0,17.16,3.76,17.16,19.34v27.14h-8.83v-26.2c0-7.32-2.91-13.43-11.24-13.43c-5.82,0-10.34,3.85-11.84,8.45
			c-0.4,1.03-0.6,2.44-0.6,3.85v27.32h-8.83V281.88z"/>
		<path d="M2284,281.88c0-4.69-0.1-8.55-0.4-12.3h7.83l0.5,7.51h0.2c2.41-4.32,8.03-8.55,16.06-8.55c6.72,0,17.16,3.76,17.16,19.34
			v27.14h-8.83v-26.2c0-7.32-2.91-13.43-11.24-13.43c-5.82,0-10.34,3.85-11.84,8.45c-0.4,1.03-0.6,2.44-0.6,3.85v27.32H2284V281.88z
			"/>
		<path d="M2383.65,291.93c0,16.81-12.44,24.13-24.19,24.13c-13.15,0-23.28-9.01-23.28-23.38c0-15.21,10.64-24.13,24.08-24.13
			C2374.22,268.55,2383.65,278.03,2383.65,291.93z M2345.11,292.4c0,9.95,6.12,17.47,14.75,17.47c8.43,0,14.75-7.42,14.75-17.65
			c0-7.7-4.11-17.47-14.55-17.47S2345.11,283.76,2345.11,292.4z"/>
		<path d="M2397.5,269.58l9.53,25.54c1.61,4.13,2.91,7.89,3.91,11.64h0.3c1.1-3.76,2.51-7.51,4.11-11.64l9.43-25.54h9.23
			l-19.07,45.45h-8.43l-18.46-45.45H2397.5z"/>
		<path d="M2468.85,315.03l-0.7-5.73h-0.3c-2.71,3.57-7.93,6.76-14.85,6.76c-9.83,0-14.85-6.48-14.85-13.05
			c0-10.99,10.44-17,29.2-16.9v-0.94c0-3.76-1.1-10.52-11.04-10.52c-4.52,0-9.23,1.31-12.64,3.38l-2.01-5.45
			c4.01-2.44,9.83-4.04,15.96-4.04c14.85,0,18.47,9.48,18.47,18.59v17c0,3.94,0.2,7.79,0.8,10.89H2468.85z M2467.55,291.83
			c-9.63-0.19-20.57,1.41-20.57,10.24c0,5.35,3.81,7.89,8.33,7.89c6.32,0,10.34-3.76,11.74-7.61c0.3-0.84,0.5-1.78,0.5-2.63V291.83z
			"/>
		<path d="M2500.57,256.53v13.05h12.64v6.29h-12.64v24.51c0,5.63,1.71,8.83,6.62,8.83c2.31,0,4.01-0.28,5.12-0.56l0.4,6.2
			c-1.71,0.66-4.42,1.13-7.83,1.13c-4.11,0-7.43-1.22-9.53-3.47c-2.51-2.44-3.41-6.48-3.41-11.83v-24.79h-7.53v-6.29h7.53v-10.89
			L2500.57,256.53z"/>
		<path d="M2532.98,256.81c0.1,2.82-2.11,5.07-5.62,5.07c-3.11,0-5.32-2.25-5.32-5.07c0-2.91,2.31-5.16,5.52-5.16
			C2530.88,251.64,2532.98,253.9,2532.98,256.81z M2523.15,315.03v-45.45h8.83v45.45H2523.15z"/>
		<path d="M2550.04,269.58l9.53,25.54c1.61,4.13,2.91,7.89,3.91,11.64h0.3c1.1-3.76,2.51-7.51,4.11-11.64l9.43-25.54h9.23
			l-19.07,45.45h-8.43l-18.46-45.45H2550.04z"/>
		<path d="M2598.82,293.8c0.2,11.17,7.83,15.78,16.66,15.78c6.32,0,10.13-1.03,13.45-2.35l1.51,5.92
			c-3.11,1.31-8.43,2.82-16.16,2.82c-14.95,0-23.88-9.2-23.88-22.91c0-13.71,8.63-24.51,22.78-24.51
			c15.86,0,20.07,13.05,20.07,21.41c0,1.69-0.2,3-0.3,3.85H2598.82z M2624.71,287.89c0.1-5.26-2.31-13.43-12.24-13.43
			c-8.93,0-12.84,7.7-13.55,13.43H2624.71z"/>
	</g>
	<g>
		<path d="M2785.67,312.96c-3.21,1.5-9.63,3-17.86,3c-19.07,0-33.42-11.27-33.42-32.02c0-19.81,14.35-33.24,35.32-33.24
			c8.43,0,13.75,1.69,16.06,2.82l-2.11,6.67c-3.31-1.5-8.03-2.63-13.65-2.63c-15.86,0-26.39,9.48-26.39,26.1
			c0,15.49,9.53,25.45,25.99,25.45c5.32,0,10.74-1.03,14.25-2.63L2785.67,312.96z"/>
		<path d="M2839.16,291.93c0,16.81-12.44,24.13-24.18,24.13c-13.15,0-23.28-9.01-23.28-23.38c0-15.21,10.64-24.13,24.08-24.13
			C2829.73,268.55,2839.16,278.03,2839.16,291.93z M2800.63,292.4c0,9.95,6.12,17.47,14.75,17.47c8.43,0,14.75-7.42,14.75-17.65
			c0-7.7-4.11-17.47-14.55-17.47C2805.14,274.74,2800.63,283.76,2800.63,292.4z"/>
		<path d="M2850.3,281.88c0-4.69-0.1-8.55-0.4-12.3h7.83l0.5,7.51h0.2c2.41-4.32,8.03-8.55,16.06-8.55
			c6.72,0,17.16,3.76,17.16,19.34v27.14h-8.83v-26.2c0-7.32-2.91-13.43-11.24-13.43c-5.82,0-10.34,3.85-11.84,8.45
			c-0.4,1.03-0.6,2.44-0.6,3.85v27.32h-8.83V281.88z"/>
		<path d="M2904.8,306.58c2.61,1.6,7.23,3.29,11.64,3.29c6.42,0,9.43-3,9.43-6.76c0-3.94-2.51-6.1-9.03-8.36
			c-8.73-2.91-12.84-7.42-12.84-12.87c0-7.32,6.32-13.33,16.76-13.33c4.92,0,9.23,1.31,11.94,2.82l-2.21,6.01
			c-1.91-1.13-5.42-2.63-9.94-2.63c-5.22,0-8.13,2.82-8.13,6.2c0,3.76,2.91,5.45,9.23,7.7c8.43,3,12.74,6.95,12.74,13.71
			c0,7.98-6.62,13.62-18.16,13.62c-5.32,0-10.24-1.22-13.65-3.1L2904.8,306.58z"/>
		<path d="M2956.38,256.53v13.05h12.64v6.29h-12.64v24.51c0,5.63,1.71,8.83,6.62,8.83c2.31,0,4.01-0.28,5.12-0.56l0.4,6.2
			c-1.71,0.66-4.42,1.13-7.83,1.13c-4.11,0-7.43-1.22-9.53-3.47c-2.51-2.44-3.41-6.48-3.41-11.83v-24.79h-7.53v-6.29h7.53v-10.89
			L2956.38,256.53z"/>
		<path d="M2978.96,283.76c0-5.35-0.1-9.95-0.4-14.18h7.73l0.3,8.92h0.4c2.21-6.1,7.53-9.95,13.45-9.95c1,0,1.71,0.09,2.51,0.28
			v7.79c-0.9-0.19-1.81-0.28-3.01-0.28c-6.22,0-10.64,4.41-11.84,10.61c-0.2,1.13-0.4,2.44-0.4,3.85v24.23h-8.73V283.76z"/>
		<path d="M3052.42,302.63c0,4.69,0.1,8.83,0.4,12.39h-7.83l-0.5-7.42h-0.2c-2.31,3.66-7.43,8.45-16.06,8.45
			c-7.63,0-16.76-3.94-16.76-19.91v-26.57h8.83v25.17c0,8.64,2.81,14.46,10.84,14.46c5.92,0,10.04-3.85,11.64-7.51
			c0.5-1.22,0.8-2.72,0.8-4.23v-27.89h8.83V302.63z"/>
		<path d="M3101.7,313.34c-2.31,1.13-7.43,2.63-13.95,2.63c-14.65,0-24.18-9.3-24.18-23.19c0-13.99,10.24-24.13,26.09-24.13
			c5.22,0,9.83,1.22,12.24,2.35l-2.01,6.39c-2.11-1.13-5.42-2.16-10.24-2.16c-11.14,0-17.16,7.7-17.16,17.18
			c0,10.52,7.22,17,16.86,17c5.02,0,8.33-1.22,10.84-2.25L3101.7,313.34z"/>
		<path d="M3123.98,256.53v13.05h12.64v6.29h-12.64v24.51c0,5.63,1.71,8.83,6.62,8.83c2.31,0,4.01-0.28,5.12-0.56l0.4,6.2
			c-1.71,0.66-4.42,1.13-7.83,1.13c-4.11,0-7.43-1.22-9.53-3.47c-2.51-2.44-3.41-6.48-3.41-11.83v-24.79h-7.53v-6.29h7.53v-10.89
			L3123.98,256.53z"/>
		<path d="M3156.39,256.81c0.1,2.82-2.11,5.07-5.62,5.07c-3.11,0-5.32-2.25-5.32-5.07c0-2.91,2.31-5.16,5.52-5.16
			C3154.28,251.64,3156.39,253.9,3156.39,256.81z M3146.56,315.03v-45.45h8.83v45.45H3146.56z"/>
		<path d="M3173.45,269.58l9.53,25.54c1.61,4.13,2.91,7.89,3.91,11.64h0.3c1.1-3.76,2.51-7.51,4.11-11.64l9.43-25.54h9.23
			l-19.07,45.45h-8.43l-18.46-45.45H3173.45z"/>
		<path d="M3222.22,293.8c0.2,11.17,7.83,15.78,16.66,15.78c6.32,0,10.14-1.03,13.45-2.35l1.5,5.92c-3.11,1.31-8.43,2.82-16.16,2.82
			c-14.95,0-23.88-9.2-23.88-22.91c0-13.71,8.63-24.51,22.78-24.51c15.86,0,20.07,13.05,20.07,21.41c0,1.69-0.2,3-0.3,3.85H3222.22z
			 M3248.11,287.89c0.1-5.26-2.31-13.43-12.24-13.43c-8.93,0-12.84,7.7-13.55,13.43H3248.11z"/>
	</g>
	<g>
		<path d="M3412.19,312.96c-3.21,1.5-9.63,3-17.86,3c-19.07,0-33.42-11.27-33.42-32.02c0-19.81,14.35-33.24,35.32-33.24
			c8.43,0,13.75,1.69,16.06,2.82l-2.11,6.67c-3.31-1.5-8.03-2.63-13.65-2.63c-15.86,0-26.39,9.48-26.39,26.1
			c0,15.49,9.53,25.45,25.99,25.45c5.32,0,10.74-1.03,14.25-2.63L3412.19,312.96z"/>
		<path d="M3465.68,291.93c0,16.81-12.44,24.13-24.18,24.13c-13.15,0-23.28-9.01-23.28-23.38c0-15.21,10.64-24.13,24.08-24.13
			C3456.25,268.55,3465.68,278.03,3465.68,291.93z M3427.14,292.4c0,9.95,6.12,17.47,14.75,17.47c8.43,0,14.75-7.42,14.75-17.65
			c0-7.7-4.11-17.47-14.55-17.47C3431.66,274.74,3427.14,283.76,3427.14,292.4z"/>
		<path d="M3476.82,281.88c0-4.69-0.1-8.55-0.4-12.3h7.83l0.5,7.51h0.2c2.41-4.32,8.03-8.55,16.06-8.55
			c6.72,0,17.16,3.76,17.16,19.34v27.14h-8.83v-26.2c0-7.32-2.91-13.43-11.24-13.43c-5.82,0-10.34,3.85-11.84,8.45
			c-0.4,1.03-0.6,2.44-0.6,3.85v27.32h-8.83V281.88z"/>
		<path d="M3567.14,313.34c-2.31,1.13-7.43,2.63-13.95,2.63c-14.65,0-24.18-9.3-24.18-23.19c0-13.99,10.24-24.13,26.09-24.13
			c5.22,0,9.83,1.22,12.24,2.35l-2.01,6.39c-2.11-1.13-5.42-2.16-10.24-2.16c-11.14,0-17.16,7.7-17.16,17.18
			c0,10.52,7.23,17,16.86,17c5.02,0,8.33-1.22,10.84-2.25L3567.14,313.34z"/>
		<path d="M3581.79,293.8c0.2,11.17,7.83,15.78,16.66,15.78c6.32,0,10.14-1.03,13.45-2.35l1.5,5.92c-3.11,1.31-8.43,2.82-16.16,2.82
			c-14.95,0-23.88-9.2-23.88-22.91c0-13.71,8.63-24.51,22.78-24.51c15.86,0,20.07,13.05,20.07,21.41c0,1.69-0.2,3-0.3,3.85H3581.79z
			 M3607.69,287.89c0.1-5.26-2.31-13.43-12.24-13.43c-8.93,0-12.84,7.7-13.55,13.43H3607.69z"/>
		<path d="M3627.16,284.41c0-5.82-0.2-10.52-0.4-14.84h7.93l0.4,7.79h0.2c3.61-5.54,9.33-8.83,17.26-8.83
			c11.74,0,20.57,9.3,20.57,23.1c0,16.34-10.64,24.41-22.08,24.41c-6.42,0-12.04-2.63-14.95-7.14h-0.2v24.7h-8.73V284.41z
			 M3635.89,296.53c0,1.22,0.2,2.35,0.4,3.38c1.6,5.73,6.92,9.67,13.25,9.67c9.33,0,14.75-7.14,14.75-17.56
			c0-9.11-5.12-16.9-14.45-16.9c-6.02,0-11.64,4.04-13.35,10.23c-0.3,1.03-0.6,2.25-0.6,3.38V296.53z"/>
		<path d="M3694.9,256.53v13.05h12.64v6.29h-12.64v24.51c0,5.63,1.71,8.83,6.62,8.83c2.31,0,4.01-0.28,5.12-0.56l0.4,6.2
			c-1.71,0.66-4.42,1.13-7.83,1.13c-4.11,0-7.43-1.22-9.53-3.47c-2.51-2.44-3.41-6.48-3.41-11.83v-24.79h-7.53v-6.29h7.53v-10.89
			L3694.9,256.53z"/>
	</g>
	<ellipse cx="2680.19" cy="287.47" rx="22.66" ry="22.23"/>
	<ellipse cx="3310.38" cy="287.47" rx="22.66" ry="22.23"/>
	<path class="st0" d="M2147.3,409.11h-716.9c-5.35,0-9.7-4.34-9.7-9.7V-161.8c0-5.35,4.34-9.7,9.7-9.7h716.9
		c5.35,0,9.7,4.34,9.7,9.7v561.22C2157,404.77,2152.65,409.11,2147.3,409.11z"/>
	<g>
		<path class="st1" d="M1582.96-21.24v252.29h-33.19V-21.24H1582.96z"/>
		<path class="st1" d="M1820.64,222.81c-12.21,5.99-36.62,11.98-67.91,11.98c-72.49,0-127.04-44.92-127.04-127.64
			c0-78.98,54.56-132.51,134.29-132.51c32.05,0,52.27,6.74,61.04,11.23l-8.01,26.58c-12.59-5.99-30.52-10.48-51.88-10.48
			c-60.28,0-100.34,37.81-100.34,104.06c0,61.76,36.24,101.44,98.81,101.44c20.22,0,40.82-4.12,54.17-10.48L1820.64,222.81z"/>
		<path class="st1" d="M2033.9,222.81c-12.21,5.99-36.62,11.98-67.91,11.98c-72.49,0-127.04-44.92-127.04-127.64
			c0-78.98,54.56-132.51,134.29-132.51c32.05,0,52.27,6.74,61.04,11.23l-8.01,26.58c-12.59-5.99-30.52-10.48-51.88-10.48
			c-60.28,0-100.34,37.81-100.34,104.06c0,61.76,36.24,101.44,98.81,101.44c20.22,0,40.82-4.12,54.17-10.48L2033.9,222.81z"/>
	</g>
</g>
<g>
	<g>
		<path class="st1" d="M33.08-131.49c2.54-0.38,5.57-0.66,8.88-0.66c6,0,10.27,1.36,13.1,3.95c2.88,2.59,4.56,6.25,4.56,11.38
			c0,5.17-1.63,9.4-4.66,12.32c-3.02,2.96-8.02,4.56-14.3,4.56c-2.98,0-5.47-0.14-7.58-0.38V-131.49z M37.25-103.47
			c1.06,0.19,2.59,0.24,4.22,0.24c8.93,0,13.78-4.89,13.78-13.45c0.05-7.48-4.27-12.23-13.1-12.23c-2.16,0-3.79,0.19-4.9,0.42
			V-103.47z"/>
		<path class="st1" d="M67.45-110.85c0.1,5.6,3.74,7.9,7.97,7.9c3.02,0,4.85-0.52,6.43-1.18l0.72,2.96
			c-1.49,0.66-4.03,1.41-7.73,1.41c-7.15,0-11.42-4.61-11.42-11.47c0-6.87,4.13-12.27,10.9-12.27c7.58,0,9.6,6.54,9.6,10.72
			c0,0.85-0.1,1.5-0.14,1.93H67.45z M79.83-113.81c0.05-2.63-1.1-6.72-5.86-6.72c-4.27,0-6.14,3.86-6.48,6.72H79.83z"/>
		<path class="st1" d="M90.77-122.98l4.56,12.79c0.77,2.07,1.39,3.95,1.87,5.83h0.14c0.53-1.88,1.2-3.76,1.97-5.83l4.51-12.79h4.42
			l-9.12,22.76h-4.03l-8.83-22.76H90.77z"/>
		<path class="st1" d="M114.1-110.85c0.1,5.6,3.74,7.9,7.97,7.9c3.02,0,4.85-0.52,6.43-1.18l0.72,2.96
			c-1.49,0.66-4.03,1.41-7.73,1.41c-7.15,0-11.42-4.61-11.42-11.47c0-6.87,4.13-12.27,10.9-12.27c7.58,0,9.6,6.54,9.6,10.72
			c0,0.85-0.1,1.5-0.14,1.93H114.1z M126.48-113.81c0.05-2.63-1.1-6.72-5.86-6.72c-4.27,0-6.14,3.86-6.48,6.72H126.48z"/>
		<path class="st1" d="M135.8-133.61h4.22v33.39h-4.22V-133.61z"/>
		<path class="st1" d="M168.15-111.79c0,8.42-5.95,12.08-11.57,12.08c-6.29,0-11.14-4.51-11.14-11.71c0-7.62,5.09-12.08,11.52-12.08
			C163.64-123.5,168.15-118.75,168.15-111.79z M149.72-111.55c0,4.98,2.93,8.75,7.06,8.75c4.03,0,7.06-3.71,7.06-8.84
			c0-3.86-1.97-8.75-6.96-8.75C151.88-120.39,149.72-115.88,149.72-111.55z"/>
		<path class="st1" d="M173.47-115.55c0-2.92-0.1-5.27-0.19-7.43h3.79l0.19,3.9h0.1c1.73-2.77,4.46-4.42,8.26-4.42
			c5.62,0,9.84,4.66,9.84,11.57c0,8.18-5.09,12.23-10.56,12.23c-3.07,0-5.76-1.32-7.15-3.57h-0.1v12.37h-4.18V-115.55z
			 M177.65-109.49c0,0.61,0.1,1.18,0.19,1.69c0.77,2.87,3.31,4.84,6.34,4.84c4.46,0,7.06-3.57,7.06-8.79c0-4.56-2.45-8.46-6.91-8.46
			c-2.88,0-5.57,2.02-6.38,5.13c-0.14,0.52-0.29,1.13-0.29,1.69V-109.49z"/>
		<path class="st1" d="M203.14-110.85c0.1,5.6,3.74,7.9,7.97,7.9c3.02,0,4.85-0.52,6.43-1.18l0.72,2.96
			c-1.49,0.66-4.03,1.41-7.73,1.41c-7.15,0-11.42-4.61-11.42-11.47c0-6.87,4.13-12.27,10.9-12.27c7.58,0,9.6,6.54,9.6,10.72
			c0,0.85-0.1,1.5-0.14,1.93H203.14z M215.52-113.81c0.05-2.63-1.1-6.72-5.86-6.72c-4.27,0-6.14,3.86-6.48,6.72H215.52z"/>
		<path class="st1" d="M224.83-115.88c0-2.68-0.05-4.98-0.19-7.1h3.7l0.14,4.47h0.19c1.06-3.06,3.6-4.98,6.43-4.98
			c0.48,0,0.82,0.05,1.2,0.14v3.9c-0.43-0.09-0.86-0.14-1.44-0.14c-2.98,0-5.09,2.21-5.66,5.31c-0.1,0.56-0.19,1.22-0.19,1.93v12.13
			h-4.18V-115.88z"/>
	</g>
	<g>
		<g>
			<path class="st1" d="M32.88-91.1v8.67h-1.2v-8.67H32.88z"/>
			<path class="st1" d="M35.07-86.97c0-0.64-0.01-1.17-0.06-1.68h1.07l0.07,1.03h0.03c0.33-0.59,1.1-1.17,2.2-1.17
				c0.92,0,2.35,0.51,2.35,2.65v3.72h-1.21v-3.59c0-1-0.4-1.84-1.54-1.84c-0.8,0-1.42,0.53-1.62,1.16
				c-0.06,0.14-0.08,0.33-0.08,0.53v3.74h-1.21V-86.97z"/>
			<path class="st1" d="M42.7-86.97c0-0.64-0.01-1.17-0.06-1.68h1.07l0.07,1.03h0.03c0.33-0.59,1.1-1.17,2.2-1.17
				c0.92,0,2.35,0.51,2.35,2.65v3.72h-1.21v-3.59c0-1-0.4-1.84-1.54-1.84c-0.8,0-1.42,0.53-1.62,1.16
				c-0.06,0.14-0.08,0.33-0.08,0.53v3.74H42.7V-86.97z"/>
			<path class="st1" d="M56.35-85.59c0,2.3-1.7,3.31-3.31,3.31c-1.8,0-3.19-1.23-3.19-3.2c0-2.08,1.46-3.31,3.3-3.31
				C55.06-88.79,56.35-87.5,56.35-85.59z M51.07-85.53c0,1.36,0.84,2.39,2.02,2.39c1.15,0,2.02-1.02,2.02-2.42
				c0-1.05-0.56-2.39-1.99-2.39C51.69-87.95,51.07-86.71,51.07-85.53z"/>
			<path class="st1" d="M58.25-88.65l1.31,3.5c0.22,0.57,0.4,1.08,0.54,1.59h0.04c0.15-0.51,0.34-1.03,0.56-1.59l1.29-3.5h1.26
				l-2.61,6.23h-1.15l-2.53-6.23H58.25z"/>
			<path class="st1" d="M68.02-82.43l-0.1-0.78h-0.04c-0.37,0.49-1.09,0.93-2.03,0.93c-1.35,0-2.03-0.89-2.03-1.79
				c0-1.5,1.43-2.33,4-2.32v-0.13c0-0.51-0.15-1.44-1.51-1.44c-0.62,0-1.26,0.18-1.73,0.46l-0.27-0.75
				c0.55-0.33,1.35-0.55,2.19-0.55c2.03,0,2.53,1.3,2.53,2.55v2.33c0,0.54,0.03,1.07,0.11,1.49H68.02z M67.84-85.61
				c-1.32-0.03-2.82,0.19-2.82,1.4c0,0.73,0.52,1.08,1.14,1.08c0.87,0,1.42-0.51,1.61-1.04c0.04-0.12,0.07-0.24,0.07-0.36V-85.61z"
				/>
			<path class="st1" d="M72.37-90.44v1.79h1.73v0.86h-1.73v3.36c0,0.77,0.23,1.21,0.91,1.21c0.32,0,0.55-0.04,0.7-0.08l0.05,0.85
				c-0.23,0.09-0.6,0.15-1.07,0.15c-0.56,0-1.02-0.17-1.31-0.48c-0.34-0.33-0.47-0.89-0.47-1.62v-3.4h-1.03v-0.86h1.03v-1.49
				L72.37-90.44z"/>
			<path class="st1" d="M76.81-90.4c0.01,0.39-0.29,0.69-0.77,0.69c-0.43,0-0.73-0.31-0.73-0.69c0-0.4,0.32-0.71,0.76-0.71
				C76.52-91.11,76.81-90.8,76.81-90.4z M75.46-82.43v-6.23h1.21v6.23H75.46z"/>
			<path class="st1" d="M79.14-88.65l1.31,3.5c0.22,0.57,0.4,1.08,0.54,1.59h0.04c0.15-0.51,0.34-1.03,0.56-1.59l1.29-3.5h1.26
				l-2.61,6.23h-1.15l-2.53-6.23H79.14z"/>
			<path class="st1" d="M85.82-85.33c0.03,1.53,1.07,2.16,2.28,2.16c0.87,0,1.39-0.14,1.84-0.32l0.21,0.81
				c-0.43,0.18-1.15,0.39-2.21,0.39c-2.05,0-3.27-1.26-3.27-3.14s1.18-3.36,3.12-3.36c2.17,0,2.75,1.79,2.75,2.93
				c0,0.23-0.03,0.41-0.04,0.53H85.82z M89.37-86.15c0.01-0.72-0.32-1.84-1.68-1.84c-1.22,0-1.76,1.05-1.86,1.84H89.37z"/>
		</g>
		<g>
			<path class="st1" d="M111.42-82.71c-0.44,0.21-1.32,0.41-2.45,0.41c-2.61,0-4.58-1.54-4.58-4.39c0-2.71,1.97-4.55,4.84-4.55
				c1.15,0,1.88,0.23,2.2,0.39l-0.29,0.91c-0.45-0.21-1.1-0.36-1.87-0.36c-2.17,0-3.62,1.3-3.62,3.58c0,2.12,1.31,3.49,3.56,3.49
				c0.73,0,1.47-0.14,1.95-0.36L111.42-82.71z"/>
			<path class="st1" d="M118.75-85.59c0,2.3-1.7,3.31-3.31,3.31c-1.8,0-3.19-1.23-3.19-3.2c0-2.08,1.46-3.31,3.3-3.31
				C117.45-88.79,118.75-87.5,118.75-85.59z M113.47-85.53c0,1.36,0.84,2.39,2.02,2.39c1.15,0,2.02-1.02,2.02-2.42
				c0-1.05-0.56-2.39-1.99-2.39C114.09-87.95,113.47-86.71,113.47-85.53z"/>
			<path class="st1" d="M120.27-86.97c0-0.64-0.01-1.17-0.05-1.68h1.07l0.07,1.03h0.03c0.33-0.59,1.1-1.17,2.2-1.17
				c0.92,0,2.35,0.51,2.35,2.65v3.72h-1.21v-3.59c0-1-0.4-1.84-1.54-1.84c-0.8,0-1.42,0.53-1.62,1.16
				c-0.05,0.14-0.08,0.33-0.08,0.53v3.74h-1.21V-86.97z"/>
			<path class="st1" d="M127.74-83.59c0.36,0.22,0.99,0.45,1.59,0.45c0.88,0,1.29-0.41,1.29-0.93c0-0.54-0.34-0.84-1.24-1.14
				c-1.2-0.4-1.76-1.02-1.76-1.76c0-1,0.87-1.83,2.3-1.83c0.67,0,1.26,0.18,1.64,0.39l-0.3,0.82c-0.26-0.15-0.74-0.36-1.36-0.36
				c-0.71,0-1.11,0.39-1.11,0.85c0,0.51,0.4,0.75,1.26,1.05c1.15,0.41,1.75,0.95,1.75,1.88c0,1.09-0.91,1.87-2.49,1.87
				c-0.73,0-1.4-0.17-1.87-0.42L127.74-83.59z"/>
			<path class="st1" d="M134.8-90.44v1.79h1.73v0.86h-1.73v3.36c0,0.77,0.23,1.21,0.91,1.21c0.32,0,0.55-0.04,0.7-0.08l0.05,0.85
				c-0.23,0.09-0.6,0.15-1.07,0.15c-0.56,0-1.02-0.17-1.31-0.48c-0.34-0.33-0.47-0.89-0.47-1.62v-3.4h-1.03v-0.86h1.03v-1.49
				L134.8-90.44z"/>
			<path class="st1" d="M137.9-86.71c0-0.73-0.01-1.36-0.05-1.94h1.06l0.04,1.22h0.05c0.3-0.84,1.03-1.36,1.84-1.36
				c0.14,0,0.23,0.01,0.34,0.04v1.07c-0.12-0.03-0.25-0.04-0.41-0.04c-0.85,0-1.46,0.6-1.62,1.45c-0.03,0.15-0.05,0.33-0.05,0.53
				v3.32h-1.2V-86.71z"/>
			<path class="st1" d="M147.96-84.13c0,0.64,0.01,1.21,0.06,1.7h-1.07l-0.07-1.02h-0.03c-0.32,0.5-1.02,1.16-2.2,1.16
				c-1.04,0-2.3-0.54-2.3-2.73v-3.64h1.21v3.45c0,1.18,0.38,1.98,1.48,1.98c0.81,0,1.37-0.53,1.59-1.03
				c0.07-0.17,0.11-0.37,0.11-0.58v-3.82h1.21V-84.13z"/>
			<path class="st1" d="M154.71-82.66c-0.32,0.15-1.02,0.36-1.91,0.36c-2.01,0-3.31-1.27-3.31-3.18c0-1.92,1.4-3.31,3.57-3.31
				c0.71,0,1.35,0.17,1.68,0.32l-0.27,0.87c-0.29-0.15-0.74-0.3-1.4-0.3c-1.53,0-2.35,1.05-2.35,2.35c0,1.44,0.99,2.33,2.31,2.33
				c0.69,0,1.14-0.17,1.48-0.31L154.71-82.66z"/>
			<path class="st1" d="M157.76-90.44v1.79h1.73v0.86h-1.73v3.36c0,0.77,0.23,1.21,0.91,1.21c0.32,0,0.55-0.04,0.7-0.08l0.05,0.85
				c-0.23,0.09-0.6,0.15-1.07,0.15c-0.56,0-1.02-0.17-1.31-0.48c-0.34-0.33-0.47-0.89-0.47-1.62v-3.4h-1.03v-0.86h1.03v-1.49
				L157.76-90.44z"/>
			<path class="st1" d="M162.2-90.4c0.01,0.39-0.29,0.69-0.77,0.69c-0.43,0-0.73-0.31-0.73-0.69c0-0.4,0.32-0.71,0.76-0.71
				C161.91-91.11,162.2-90.8,162.2-90.4z M160.85-82.43v-6.23h1.21v6.23H160.85z"/>
			<path class="st1" d="M164.54-88.65l1.31,3.5c0.22,0.57,0.4,1.08,0.54,1.59h0.04c0.15-0.51,0.34-1.03,0.56-1.59l1.29-3.5h1.26
				l-2.61,6.23h-1.15l-2.53-6.23H164.54z"/>
			<path class="st1" d="M171.22-85.33c0.03,1.53,1.07,2.16,2.28,2.16c0.87,0,1.39-0.14,1.84-0.32l0.21,0.81
				c-0.43,0.18-1.15,0.39-2.21,0.39c-2.05,0-3.27-1.26-3.27-3.14s1.18-3.36,3.12-3.36c2.17,0,2.75,1.79,2.75,2.93
				c0,0.23-0.03,0.41-0.04,0.53H171.22z M174.76-86.15c0.01-0.72-0.32-1.84-1.68-1.84c-1.22,0-1.76,1.05-1.86,1.84H174.76z"/>
		</g>
		<g>
			<path class="st1" d="M197.24-82.71c-0.44,0.21-1.32,0.41-2.45,0.41c-2.61,0-4.58-1.54-4.58-4.39c0-2.71,1.97-4.55,4.84-4.55
				c1.15,0,1.88,0.23,2.2,0.39l-0.29,0.91c-0.45-0.21-1.1-0.36-1.87-0.36c-2.17,0-3.62,1.3-3.62,3.58c0,2.12,1.31,3.49,3.56,3.49
				c0.73,0,1.47-0.14,1.95-0.36L197.24-82.71z"/>
			<path class="st1" d="M204.57-85.59c0,2.3-1.7,3.31-3.31,3.31c-1.8,0-3.19-1.23-3.19-3.2c0-2.08,1.46-3.31,3.3-3.31
				C203.27-88.79,204.57-87.5,204.57-85.59z M199.29-85.53c0,1.36,0.84,2.39,2.02,2.39c1.15,0,2.02-1.02,2.02-2.42
				c0-1.05-0.56-2.39-1.99-2.39C199.91-87.95,199.29-86.71,199.29-85.53z"/>
			<path class="st1" d="M206.09-86.97c0-0.64-0.01-1.17-0.05-1.68h1.07l0.07,1.03h0.03c0.33-0.59,1.1-1.17,2.2-1.17
				c0.92,0,2.35,0.51,2.35,2.65v3.72h-1.21v-3.59c0-1-0.4-1.84-1.54-1.84c-0.8,0-1.42,0.53-1.62,1.16
				c-0.05,0.14-0.08,0.33-0.08,0.53v3.74h-1.21V-86.97z"/>
			<path class="st1" d="M218.46-82.66c-0.32,0.15-1.02,0.36-1.91,0.36c-2.01,0-3.31-1.27-3.31-3.18c0-1.92,1.4-3.31,3.57-3.31
				c0.71,0,1.35,0.17,1.68,0.32l-0.27,0.87c-0.29-0.15-0.74-0.3-1.4-0.3c-1.53,0-2.35,1.05-2.35,2.35c0,1.44,0.99,2.33,2.31,2.33
				c0.69,0,1.14-0.17,1.48-0.31L218.46-82.66z"/>
			<path class="st1" d="M220.47-85.33c0.03,1.53,1.07,2.16,2.28,2.16c0.87,0,1.39-0.14,1.84-0.32l0.21,0.81
				c-0.43,0.18-1.15,0.39-2.21,0.39c-2.05,0-3.27-1.26-3.27-3.14s1.18-3.36,3.12-3.36c2.17,0,2.75,1.79,2.75,2.93
				c0,0.23-0.03,0.41-0.04,0.53H220.47z M224.02-86.15c0.01-0.72-0.32-1.84-1.68-1.84c-1.22,0-1.76,1.05-1.86,1.84H224.02z"/>
			<path class="st1" d="M226.68-86.62c0-0.8-0.03-1.44-0.05-2.03h1.09l0.05,1.07h0.03c0.49-0.76,1.28-1.21,2.36-1.21
				c1.61,0,2.82,1.27,2.82,3.16c0,2.24-1.46,3.34-3.02,3.34c-0.88,0-1.65-0.36-2.05-0.98h-0.03v3.38h-1.2V-86.62z M227.88-84.96
				c0,0.17,0.03,0.32,0.05,0.46c0.22,0.78,0.95,1.32,1.81,1.32c1.28,0,2.02-0.98,2.02-2.41c0-1.25-0.7-2.32-1.98-2.32
				c-0.82,0-1.59,0.55-1.83,1.4c-0.04,0.14-0.08,0.31-0.08,0.46V-84.96z"/>
			<path class="st1" d="M235.96-90.44v1.79h1.73v0.86h-1.73v3.36c0,0.77,0.23,1.21,0.91,1.21c0.32,0,0.55-0.04,0.7-0.08l0.05,0.85
				c-0.23,0.09-0.6,0.15-1.07,0.15c-0.56,0-1.02-0.17-1.31-0.48c-0.34-0.33-0.47-0.89-0.47-1.62v-3.4h-1.03v-0.86h1.03v-1.49
				L235.96-90.44z"/>
		</g>
		<ellipse class="st1" cx="96.97" cy="-86.2" rx="3.1" ry="3.05"/>
		<ellipse class="st1" cx="183.29" cy="-86.2" rx="3.1" ry="3.05"/>
	</g>
</g>
<g>
	<path class="st0" d="M15.3-75.74h-52.59c-5.35,0-9.7-4.34-9.7-9.7v-42.61c0-5.35,4.34-9.7,9.7-9.7H15.3c5.35,0,9.7,4.34,9.7,9.7
		v42.61C25-80.09,20.66-75.74,15.3-75.74z"/>
	<g>
		<path class="st1" d="M-37.01-122.42v31.39h-4.13v-31.39H-37.01z"/>
		<path class="st1" d="M-7.43-92.05c-1.52,0.75-4.56,1.49-8.45,1.49c-9.02,0-15.81-5.59-15.81-15.88c0-9.83,6.79-16.49,16.71-16.49
			c3.99,0,6.5,0.84,7.6,1.4l-1,3.31c-1.57-0.75-3.8-1.3-6.46-1.3c-7.5,0-12.49,4.7-12.49,12.95c0,7.69,4.51,12.62,12.3,12.62
			c2.52,0,5.08-0.51,6.74-1.3L-7.43-92.05z"/>
		<path class="st1" d="M19.11-92.05c-1.52,0.75-4.56,1.49-8.45,1.49c-9.02,0-15.81-5.59-15.81-15.88c0-9.83,6.79-16.49,16.71-16.49
			c3.99,0,6.5,0.84,7.6,1.4l-1,3.31c-1.57-0.75-3.8-1.3-6.46-1.3c-7.5,0-12.49,4.7-12.49,12.95c0,7.69,4.51,12.62,12.3,12.62
			c2.52,0,5.08-0.51,6.74-1.3L19.11-92.05z"/>
	</g>
</g>
<rect class="st0" width="32" height="32"/>
<g>
	<path class="st1" d="M3.93,8.73V23.3H2.01V8.73H3.93z"/>
	<path class="st1" d="M17.65,22.82c-0.71,0.35-2.12,0.69-3.92,0.69c-4.19,0-7.34-2.59-7.34-7.37c0-4.56,3.15-7.65,7.76-7.65
		c1.85,0,3.02,0.39,3.53,0.65l-0.46,1.53c-0.73-0.35-1.76-0.61-3-0.61c-3.48,0-5.79,2.18-5.79,6.01c0,3.57,2.09,5.86,5.71,5.86
		c1.17,0,2.36-0.24,3.13-0.61L17.65,22.82z"/>
	<path class="st1" d="M29.97,22.82c-0.71,0.35-2.12,0.69-3.92,0.69c-4.19,0-7.34-2.59-7.34-7.37c0-4.56,3.15-7.65,7.76-7.65
		c1.85,0,3.02,0.39,3.53,0.65l-0.46,1.53c-0.73-0.35-1.76-0.61-3-0.61c-3.48,0-5.79,2.18-5.79,6.01c0,3.57,2.09,5.86,5.71,5.86
		c1.17,0,2.36-0.24,3.13-0.61L29.97,22.82z"/>
</g>
</svg>
