<?xml version="1.0" encoding="utf-8"?>
<!-- Generator: Adobe Illustrator 24.0.1, SVG Export Plug-In . SVG Version: 6.00 Build 0)  -->
<svg version="1.1" id="Layer_1" xmlns="http://www.w3.org/2000/svg" xmlns:xlink="http://www.w3.org/1999/xlink" x="0px" y="0px"
	 viewBox="0 0 3000 993" style="enable-background:new 0 0 3000 993;" xml:space="preserve">
<style type="text/css">
	.st0{fill:#FFFFFF;}
	.st1{fill:#D43100;}
</style>
<g>
	<path class="st0" d="M1029.53,269.56c23.23-3.43,50.84-6.01,81.08-6.01c54.78,0,93.78,12.45,119.64,36.06
		c26.3,23.61,41.63,57.1,41.63,103.89c0,47.22-14.9,85.86-42.51,112.48c-27.61,27.05-73.19,41.64-130.6,41.64
		c-27.17,0-49.96-1.29-69.24-3.43V269.56z M1067.66,525.42c9.64,1.72,23.67,2.15,38.57,2.15c81.51,0,125.78-44.65,125.78-122.78
		c0.44-68.26-39-111.62-119.64-111.62c-19.72,0-34.62,1.72-44.7,3.86V525.42z"/>
	<path class="st0" d="M1343.3,458.02c0.88,51.09,34.18,72.12,72.75,72.12c27.61,0,44.26-4.72,58.72-10.73l6.57,27.05
		c-13.59,6.01-36.81,12.88-70.56,12.88c-65.3,0-104.3-42.07-104.3-104.75c0-62.68,37.69-112.05,99.48-112.05
		c69.24,0,87.65,59.67,87.65,97.88c0,7.73-0.88,13.74-1.32,17.6H1343.3z M1456.37,430.98c0.44-24.04-10.08-61.39-53.47-61.39
		c-39,0-56.1,35.2-59.16,61.39H1456.37z"/>
	<path class="st0" d="M1556.28,347.26l41.63,116.77c7.01,18.89,12.71,36.06,17.09,53.23h1.32c4.82-17.17,10.96-34.35,17.97-53.23
		l41.19-116.77h40.32l-83.27,207.79h-36.81l-80.64-207.79H1556.28z"/>
	<path class="st0" d="M1769.26,458.02c0.88,51.09,34.18,72.12,72.75,72.12c27.61,0,44.26-4.72,58.72-10.73l6.57,27.05
		c-13.59,6.01-36.81,12.88-70.56,12.88c-65.3,0-104.3-42.07-104.3-104.75c0-62.68,37.69-112.05,99.48-112.05
		c69.24,0,87.65,59.67,87.65,97.88c0,7.73-0.88,13.74-1.32,17.6H1769.26z M1882.33,430.98c0.44-24.04-10.08-61.39-53.47-61.39
		c-39,0-56.1,35.2-59.16,61.39H1882.33z"/>
	<path class="st0" d="M1967.34,250.24h38.57v304.81h-38.57V250.24z"/>
	<path class="st0" d="M2262.71,449.44c0,76.85-54.34,110.33-105.62,110.33c-57.41,0-101.67-41.21-101.67-106.9
		c0-69.55,46.45-110.33,105.18-110.33C2221.52,342.54,2262.71,385.9,2262.71,449.44z M2094.43,451.58
		c0,45.51,26.73,79.85,64.42,79.85c36.81,0,64.42-33.92,64.42-80.71c0-35.2-17.97-79.85-63.55-79.85
		C2114.15,370.87,2094.43,412.09,2094.43,451.58z"/>
	<path class="st0" d="M2311.35,415.09c0-26.62-0.88-48.08-1.75-67.83h34.62l1.75,35.63h0.88c15.78-25.33,40.76-40.36,75.38-40.36
		c51.28,0,89.84,42.5,89.84,105.61c0,74.7-46.45,111.62-96.41,111.62c-28.05,0-52.59-12.02-65.3-32.63h-0.88v112.91h-38.13V415.09z
		 M2349.48,470.47c0,5.58,0.88,10.73,1.75,15.46c7.01,26.19,30.24,44.22,57.85,44.22c40.76,0,64.42-32.63,64.42-80.28
		c0-41.64-22.35-77.28-63.11-77.28c-26.3,0-50.84,18.46-58.29,46.79c-1.31,4.72-2.63,10.3-2.63,15.46V470.47z"/>
	<path class="st0" d="M2582.18,458.02c0.88,51.09,34.18,72.12,72.75,72.12c27.61,0,44.26-4.72,58.72-10.73l6.57,27.05
		c-13.59,6.01-36.81,12.88-70.56,12.88c-65.3,0-104.3-42.07-104.3-104.75c0-62.68,37.69-112.05,99.48-112.05
		c69.24,0,87.65,59.67,87.65,97.88c0,7.73-0.88,13.74-1.31,17.6H2582.18z M2695.25,430.98c0.44-24.04-10.08-61.39-53.47-61.39
		c-39,0-56.1,35.2-59.16,61.39H2695.25z"/>
	<path class="st0" d="M2780.26,412.09c0-24.47-0.44-45.51-1.75-64.83h33.75l1.31,40.78h1.75c9.64-27.91,32.87-45.51,58.72-45.51
		c4.38,0,7.45,0.43,10.96,1.29v35.63c-3.94-0.86-7.89-1.29-13.15-1.29c-27.17,0-46.45,20.18-51.71,48.51
		c-0.88,5.15-1.75,11.16-1.75,17.6v110.76h-38.13V412.09z"/>
</g>
<g>
	<path class="st0" d="M1036.69,674.81v76.42h-10.54v-76.42H1036.69z"/>
	<path class="st0" d="M1055.95,711.2c0-5.67-0.12-10.32-0.48-14.85h9.45l0.61,9.07h0.24c2.91-5.22,9.69-10.32,19.39-10.32
		c8.12,0,20.72,4.53,20.72,23.36v32.77h-10.66v-31.63c0-8.84-3.51-16.21-13.57-16.21c-7.03,0-12.48,4.65-14.3,10.2
		c-0.48,1.25-0.73,2.95-0.73,4.65v32.99h-10.66V711.2z"/>
	<path class="st0" d="M1123.2,711.2c0-5.67-0.12-10.32-0.48-14.85h9.45l0.61,9.07h0.24c2.91-5.22,9.69-10.32,19.39-10.32
		c8.12,0,20.72,4.53,20.72,23.36v32.77h-10.66v-31.63c0-8.84-3.51-16.21-13.57-16.21c-7.03,0-12.48,4.65-14.3,10.2
		c-0.48,1.25-0.73,2.95-0.73,4.65v32.99h-10.66V711.2z"/>
	<path class="st0" d="M1243.52,723.34c0,20.3-15.02,29.14-29.2,29.14c-15.87,0-28.11-10.88-28.11-28.23
		c0-18.37,12.84-29.14,29.08-29.14C1232.13,695.1,1243.52,706.56,1243.52,723.34z M1197,723.9c0,12.02,7.39,21.09,17.81,21.09
		c10.18,0,17.81-8.96,17.81-21.31c0-9.3-4.97-21.09-17.57-21.09C1202.45,702.59,1197,713.47,1197,723.9z"/>
	<path class="st0" d="M1260.25,696.35l11.51,30.84c1.94,4.99,3.51,9.52,4.73,14.06h0.36c1.33-4.54,3.03-9.07,4.97-14.06l11.39-30.84
		h11.15l-23.02,54.88h-10.18l-22.29-54.88H1260.25z"/>
	<path class="st0" d="M1346.4,751.23l-0.85-6.92h-0.36c-3.27,4.31-9.57,8.16-17.93,8.16c-11.87,0-17.93-7.82-17.93-15.76
		c0-13.27,12.6-20.52,35.26-20.41v-1.13c0-4.54-1.33-12.7-13.33-12.7c-5.45,0-11.15,1.59-15.27,4.08l-2.42-6.58
		c4.85-2.95,11.87-4.88,19.27-4.88c17.93,0,22.3,11.45,22.3,22.45v20.52c0,4.76,0.24,9.41,0.97,13.15H1346.4z M1344.83,723.22
		c-11.63-0.23-24.84,1.7-24.84,12.36c0,6.46,4.6,9.52,10.06,9.52c7.63,0,12.48-4.53,14.18-9.18c0.36-1.02,0.61-2.15,0.61-3.17
		V723.22z"/>
	<path class="st0" d="M1384.69,680.59v15.76h15.27v7.6h-15.27v29.59c0,6.8,2.06,10.66,8,10.66c2.79,0,4.85-0.34,6.18-0.68l0.48,7.48
		c-2.06,0.79-5.33,1.36-9.45,1.36c-4.97,0-8.97-1.47-11.51-4.19c-3.03-2.95-4.12-7.82-4.12-14.29v-29.93h-9.09v-7.6h9.09V683.2
		L1384.69,680.59z"/>
	<path class="st0" d="M1423.83,680.93c0.12,3.4-2.54,6.12-6.79,6.12c-3.76,0-6.42-2.72-6.42-6.12c0-3.51,2.79-6.24,6.66-6.24
		C1421.29,674.7,1423.83,677.42,1423.83,680.93z M1411.96,751.23v-54.88h10.66v54.88H1411.96z"/>
	<path class="st0" d="M1444.43,696.35l11.51,30.84c1.94,4.99,3.51,9.52,4.73,14.06h0.36c1.33-4.54,3.03-9.07,4.97-14.06l11.39-30.84
		h11.15l-23.02,54.88h-10.18l-22.29-54.88H1444.43z"/>
	<path class="st0" d="M1503.32,725.6c0.24,13.49,9.45,19.05,20.11,19.05c7.63,0,12.24-1.25,16.24-2.83l1.82,7.14
		c-3.76,1.59-10.18,3.4-19.51,3.4c-18.05,0-28.84-11.11-28.84-27.66s10.42-29.59,27.51-29.59c19.14,0,24.23,15.76,24.23,25.85
		c0,2.04-0.24,3.63-0.36,4.65H1503.32z M1534.58,718.46c0.12-6.35-2.79-16.21-14.78-16.21c-10.78,0-15.51,9.3-16.36,16.21H1534.58z"
		/>
</g>
<g>
	<path class="st0" d="M1728.93,748.73c-3.88,1.81-11.63,3.63-21.57,3.63c-23.02,0-40.35-13.6-40.35-38.66
		c0-23.92,17.33-40.14,42.65-40.14c10.18,0,16.6,2.04,19.39,3.4l-2.54,8.05c-4-1.81-9.69-3.17-16.48-3.17
		c-19.14,0-31.87,11.45-31.87,31.52c0,18.71,11.51,30.73,31.38,30.73c6.42,0,12.96-1.25,17.21-3.17L1728.93,748.73z"/>
	<path class="st0" d="M1793.52,723.34c0,20.3-15.02,29.14-29.2,29.14c-15.87,0-28.11-10.88-28.11-28.23
		c0-18.37,12.84-29.14,29.08-29.14C1782.13,695.1,1793.52,706.56,1793.52,723.34z M1746.99,723.9c0,12.02,7.39,21.09,17.81,21.09
		c10.18,0,17.81-8.96,17.81-21.31c0-9.3-4.97-21.09-17.57-21.09C1752.44,702.59,1746.99,713.47,1746.99,723.9z"/>
	<path class="st0" d="M1806.97,711.2c0-5.67-0.12-10.32-0.48-14.85h9.45l0.61,9.07h0.24c2.91-5.22,9.69-10.32,19.39-10.32
		c8.12,0,20.72,4.53,20.72,23.36v32.77h-10.66v-31.63c0-8.84-3.51-16.21-13.57-16.21c-7.03,0-12.48,4.65-14.3,10.2
		c-0.48,1.25-0.73,2.95-0.73,4.65v32.99h-10.66V711.2z"/>
	<path class="st0" d="M1872.77,741.02c3.15,1.93,8.72,3.97,14.05,3.97c7.75,0,11.39-3.63,11.39-8.16c0-4.76-3.03-7.37-10.91-10.09
		c-10.54-3.52-15.51-8.96-15.51-15.53c0-8.84,7.63-16.1,20.23-16.1c5.94,0,11.15,1.59,14.42,3.4l-2.67,7.26
		c-2.3-1.36-6.54-3.17-12-3.17c-6.3,0-9.81,3.4-9.81,7.48c0,4.54,3.51,6.58,11.15,9.3c10.18,3.63,15.39,8.39,15.39,16.55
		c0,9.64-8,16.44-21.93,16.44c-6.42,0-12.36-1.47-16.48-3.74L1872.77,741.02z"/>
	<path class="st0" d="M1935.05,680.59v15.76h15.27v7.6h-15.27v29.59c0,6.8,2.06,10.66,8,10.66c2.79,0,4.85-0.34,6.18-0.68l0.48,7.48
		c-2.06,0.79-5.33,1.36-9.45,1.36c-4.97,0-8.97-1.47-11.51-4.19c-3.03-2.95-4.12-7.82-4.12-14.29v-29.93h-9.09v-7.6h9.09V683.2
		L1935.05,680.59z"/>
	<path class="st0" d="M1962.32,713.47c0-6.46-0.12-12.02-0.48-17.12h9.33l0.36,10.77h0.48c2.67-7.37,9.09-12.02,16.24-12.02
		c1.21,0,2.06,0.11,3.03,0.34v9.41c-1.09-0.23-2.18-0.34-3.64-0.34c-7.51,0-12.84,5.33-14.3,12.81c-0.24,1.36-0.48,2.95-0.48,4.65
		v29.25h-10.54V713.47z"/>
	<path class="st0" d="M2051.01,736.26c0,5.67,0.12,10.66,0.49,14.97h-9.45l-0.61-8.96h-0.24c-2.79,4.42-8.97,10.2-19.39,10.2
		c-9.21,0-20.24-4.76-20.24-24.04v-32.09h10.66v30.39c0,10.43,3.39,17.46,13.09,17.46c7.15,0,12.12-4.65,14.06-9.07
		c0.61-1.47,0.97-3.29,0.97-5.1v-33.67h10.66V736.26z"/>
	<path class="st0" d="M2110.51,749.19c-2.79,1.36-8.97,3.17-16.84,3.17c-17.69,0-29.2-11.22-29.2-28c0-16.89,12.36-29.14,31.5-29.14
		c6.3,0,11.88,1.47,14.78,2.83l-2.42,7.71c-2.54-1.36-6.54-2.61-12.36-2.61c-13.45,0-20.72,9.3-20.72,20.75
		c0,12.7,8.72,20.52,20.36,20.52c6.06,0,10.06-1.47,13.09-2.72L2110.51,749.19z"/>
	<path class="st0" d="M2137.41,680.59v15.76h15.27v7.6h-15.27v29.59c0,6.8,2.06,10.66,8,10.66c2.79,0,4.85-0.34,6.18-0.68l0.48,7.48
		c-2.06,0.79-5.33,1.36-9.45,1.36c-4.97,0-8.97-1.47-11.51-4.19c-3.03-2.95-4.12-7.82-4.12-14.29v-29.93h-9.09v-7.6h9.09V683.2
		L2137.41,680.59z"/>
	<path class="st0" d="M2176.55,680.93c0.12,3.4-2.54,6.12-6.79,6.12c-3.76,0-6.42-2.72-6.42-6.12c0-3.51,2.79-6.24,6.66-6.24
		C2174,674.7,2176.55,677.42,2176.55,680.93z M2164.67,751.23v-54.88h10.66v54.88H2164.67z"/>
	<path class="st0" d="M2197.15,696.35l11.51,30.84c1.94,4.99,3.51,9.52,4.73,14.06h0.36c1.33-4.54,3.03-9.07,4.97-14.06l11.39-30.84
		h11.15l-23.02,54.88h-10.18l-22.29-54.88H2197.15z"/>
	<path class="st0" d="M2256.04,725.6c0.24,13.49,9.45,19.05,20.11,19.05c7.63,0,12.24-1.25,16.24-2.83l1.82,7.14
		c-3.76,1.59-10.18,3.4-19.51,3.4c-18.05,0-28.84-11.11-28.84-27.66s10.42-29.59,27.5-29.59c19.15,0,24.23,15.76,24.23,25.85
		c0,2.04-0.24,3.63-0.36,4.65H2256.04z M2287.3,718.46c0.12-6.35-2.79-16.21-14.78-16.21c-10.78,0-15.51,9.3-16.36,16.21H2287.3z"/>
</g>
<g>
	<path class="st0" d="M2485.4,748.73c-3.88,1.81-11.63,3.63-21.57,3.63c-23.02,0-40.35-13.6-40.35-38.66
		c0-23.92,17.33-40.14,42.65-40.14c10.18,0,16.6,2.04,19.39,3.4l-2.54,8.05c-4-1.81-9.69-3.17-16.48-3.17
		c-19.14,0-31.87,11.45-31.87,31.52c0,18.71,11.51,30.73,31.38,30.73c6.42,0,12.96-1.25,17.21-3.17L2485.4,748.73z"/>
	<path class="st0" d="M2549.99,723.34c0,20.3-15.02,29.14-29.2,29.14c-15.87,0-28.11-10.88-28.11-28.23
		c0-18.37,12.84-29.14,29.08-29.14C2538.6,695.1,2549.99,706.56,2549.99,723.34z M2503.46,723.9c0,12.02,7.39,21.09,17.81,21.09
		c10.18,0,17.81-8.96,17.81-21.31c0-9.3-4.97-21.09-17.57-21.09S2503.46,713.47,2503.46,723.9z"/>
	<path class="st0" d="M2563.44,711.2c0-5.67-0.12-10.32-0.48-14.85h9.45l0.61,9.07h0.24c2.91-5.22,9.69-10.32,19.39-10.32
		c8.12,0,20.72,4.53,20.72,23.36v32.77h-10.66v-31.63c0-8.84-3.51-16.21-13.57-16.21c-7.03,0-12.48,4.65-14.3,10.2
		c-0.48,1.25-0.73,2.95-0.73,4.65v32.99h-10.66V711.2z"/>
	<path class="st0" d="M2672.5,749.19c-2.79,1.36-8.97,3.17-16.84,3.17c-17.69,0-29.2-11.22-29.2-28c0-16.89,12.36-29.14,31.5-29.14
		c6.3,0,11.87,1.47,14.78,2.83l-2.42,7.71c-2.54-1.36-6.54-2.61-12.36-2.61c-13.45,0-20.72,9.3-20.72,20.75
		c0,12.7,8.72,20.52,20.36,20.52c6.06,0,10.06-1.47,13.09-2.72L2672.5,749.19z"/>
	<path class="st0" d="M2690.19,725.6c0.24,13.49,9.45,19.05,20.11,19.05c7.63,0,12.24-1.25,16.24-2.83l1.82,7.14
		c-3.76,1.59-10.18,3.4-19.51,3.4c-18.05,0-28.84-11.11-28.84-27.66s10.42-29.59,27.5-29.59c19.15,0,24.23,15.76,24.23,25.85
		c0,2.04-0.24,3.63-0.36,4.65H2690.19z M2721.45,718.46c0.12-6.35-2.79-16.21-14.78-16.21c-10.78,0-15.51,9.3-16.36,16.21H2721.45z"
		/>
	<path class="st0" d="M2744.96,714.27c0-7.03-0.24-12.7-0.48-17.91h9.57l0.48,9.41h0.24c4.36-6.69,11.27-10.66,20.84-10.66
		c14.18,0,24.84,11.22,24.84,27.89c0,19.73-12.84,29.48-26.66,29.48c-7.75,0-14.54-3.17-18.05-8.62h-0.24v29.82h-10.54V714.27z
		 M2755.5,728.89c0,1.47,0.24,2.83,0.48,4.08c1.94,6.92,8.36,11.68,15.99,11.68c11.27,0,17.81-8.62,17.81-21.2
		c0-11-6.18-20.41-17.45-20.41c-7.27,0-14.05,4.88-16.11,12.36c-0.36,1.25-0.73,2.72-0.73,4.08V728.89z"/>
	<path class="st0" d="M2826.75,680.59v15.76h15.27v7.6h-15.27v29.59c0,6.8,2.06,10.66,8,10.66c2.79,0,4.85-0.34,6.18-0.68l0.48,7.48
		c-2.06,0.79-5.33,1.36-9.45,1.36c-4.97,0-8.97-1.47-11.51-4.19c-3.03-2.95-4.12-7.82-4.12-14.29v-29.93h-9.09v-7.6h9.09V683.2
		L2826.75,680.59z"/>
</g>
<ellipse class="st0" cx="1601.57" cy="717.95" rx="27.36" ry="26.84"/>
<ellipse class="st0" cx="2362.48" cy="717.95" rx="27.36" ry="26.84"/>
<path class="st1" d="M960.16,864.82H90.54c-5.35,0-9.7-4.34-9.7-9.7V173.48c0-5.35,4.34-9.7,9.7-9.7h869.63c5.35,0,9.7,4.34,9.7,9.7
	v681.65C969.86,860.48,965.52,864.82,960.16,864.82z"/>
<g>
	<path class="st0" d="M276.76,345.21v304.62h-40.08V345.21H276.76z"/>
	<path class="st0" d="M563.74,639.88c-14.74,7.23-44.22,14.46-81.99,14.46c-87.52,0-153.39-54.23-153.39-154.12
		c0-95.36,65.87-159.99,162.14-159.99c38.69,0,63.11,8.14,73.7,13.56l-9.67,32.09c-15.2-7.23-36.85-12.65-62.65-12.65
		c-72.78,0-121.15,45.65-121.15,125.64c0,74.57,43.76,122.48,119.31,122.48c24.41,0,49.29-4.97,65.41-12.66L563.74,639.88z"/>
	<path class="st0" d="M821.23,639.88c-14.74,7.23-44.22,14.46-81.99,14.46c-87.52,0-153.39-54.23-153.39-154.12
		c0-95.36,65.87-159.99,162.14-159.99c38.69,0,63.11,8.14,73.7,13.56l-9.67,32.09c-15.2-7.23-36.85-12.65-62.65-12.65
		c-72.78,0-121.15,45.65-121.15,125.64c0,74.57,43.76,122.48,119.31,122.48c24.41,0,49.29-4.97,65.41-12.66L821.23,639.88z"/>
</g>
<g>
	<g>
		<path class="st0" d="M-1016.92-261.99c2.54-0.38,5.57-0.66,8.88-0.66c6,0,10.27,1.36,13.1,3.95c2.88,2.59,4.56,6.25,4.56,11.38
			c0,5.17-1.63,9.4-4.66,12.32c-3.02,2.96-8.02,4.56-14.3,4.56c-2.98,0-5.47-0.14-7.58-0.38V-261.99z M-1012.75-233.97
			c1.06,0.19,2.59,0.24,4.22,0.24c8.93,0,13.78-4.89,13.78-13.45c0.05-7.48-4.27-12.23-13.1-12.23c-2.16,0-3.79,0.19-4.9,0.42
			V-233.97z"/>
		<path class="st0" d="M-982.55-241.35c0.1,5.6,3.74,7.9,7.97,7.9c3.02,0,4.85-0.52,6.43-1.18l0.72,2.96
			c-1.49,0.66-4.03,1.41-7.73,1.41c-7.15,0-11.42-4.61-11.42-11.47c0-6.87,4.13-12.27,10.9-12.27c7.58,0,9.6,6.54,9.6,10.72
			c0,0.85-0.1,1.5-0.14,1.93H-982.55z M-970.17-244.31c0.05-2.63-1.1-6.72-5.86-6.72c-4.27,0-6.14,3.86-6.48,6.72H-970.17z"/>
		<path class="st0" d="M-959.23-253.48l4.56,12.79c0.77,2.07,1.39,3.95,1.87,5.83h0.14c0.53-1.88,1.2-3.76,1.97-5.83l4.51-12.79
			h4.42l-9.12,22.76h-4.03l-8.83-22.76H-959.23z"/>
		<path class="st0" d="M-935.9-241.35c0.1,5.6,3.74,7.9,7.97,7.9c3.02,0,4.85-0.52,6.43-1.18l0.72,2.96
			c-1.49,0.66-4.03,1.41-7.73,1.41c-7.15,0-11.42-4.61-11.42-11.47c0-6.87,4.13-12.27,10.9-12.27c7.58,0,9.6,6.54,9.6,10.72
			c0,0.85-0.1,1.5-0.14,1.93H-935.9z M-923.52-244.31c0.05-2.63-1.1-6.72-5.86-6.72c-4.27,0-6.14,3.86-6.48,6.72H-923.52z"/>
		<path class="st0" d="M-914.2-264.11h4.22v33.39h-4.22V-264.11z"/>
		<path class="st0" d="M-881.85-242.29c0,8.42-5.95,12.08-11.57,12.08c-6.29,0-11.14-4.51-11.14-11.71
			c0-7.62,5.09-12.08,11.52-12.08C-886.36-254-881.85-249.25-881.85-242.29z M-900.28-242.05c0,4.98,2.93,8.75,7.06,8.75
			c4.03,0,7.06-3.71,7.06-8.84c0-3.86-1.97-8.75-6.96-8.75C-898.12-250.89-900.28-246.38-900.28-242.05z"/>
		<path class="st0" d="M-876.53-246.05c0-2.92-0.1-5.27-0.19-7.43h3.79l0.19,3.9h0.1c1.73-2.77,4.46-4.42,8.26-4.42
			c5.62,0,9.84,4.66,9.84,11.57c0,8.18-5.09,12.23-10.56,12.23c-3.07,0-5.76-1.32-7.15-3.57h-0.1v12.37h-4.18V-246.05z
			 M-872.35-239.99c0,0.61,0.1,1.18,0.19,1.69c0.77,2.87,3.31,4.84,6.34,4.84c4.46,0,7.06-3.57,7.06-8.79
			c0-4.56-2.45-8.46-6.91-8.46c-2.88,0-5.57,2.02-6.38,5.13c-0.14,0.52-0.29,1.13-0.29,1.69V-239.99z"/>
		<path class="st0" d="M-846.86-241.35c0.1,5.6,3.74,7.9,7.97,7.9c3.02,0,4.85-0.52,6.43-1.18l0.72,2.96
			c-1.49,0.66-4.03,1.41-7.73,1.41c-7.15,0-11.42-4.61-11.42-11.47c0-6.87,4.13-12.27,10.9-12.27c7.58,0,9.6,6.54,9.6,10.72
			c0,0.85-0.1,1.5-0.14,1.93H-846.86z M-834.48-244.31c0.05-2.63-1.1-6.72-5.86-6.72c-4.27,0-6.14,3.86-6.48,6.72H-834.48z"/>
		<path class="st0" d="M-825.17-246.38c0-2.68-0.05-4.98-0.19-7.1h3.7l0.14,4.47h0.19c1.06-3.06,3.6-4.98,6.43-4.98
			c0.48,0,0.82,0.05,1.2,0.14v3.9c-0.43-0.09-0.86-0.14-1.44-0.14c-2.98,0-5.09,2.21-5.66,5.31c-0.1,0.56-0.19,1.22-0.19,1.93v12.13
			h-4.18V-246.38z"/>
	</g>
	<g>
		<g>
			<path class="st0" d="M-1017.12-221.6v8.67h-1.2v-8.67H-1017.12z"/>
			<path class="st0" d="M-1014.93-217.47c0-0.64-0.01-1.17-0.06-1.68h1.07l0.07,1.03h0.03c0.33-0.59,1.1-1.17,2.2-1.17
				c0.92,0,2.35,0.51,2.35,2.65v3.72h-1.21v-3.59c0-1-0.4-1.84-1.54-1.84c-0.8,0-1.42,0.53-1.62,1.16
				c-0.05,0.14-0.08,0.33-0.08,0.53v3.74h-1.21V-217.47z"/>
			<path class="st0" d="M-1007.3-217.47c0-0.64-0.01-1.17-0.05-1.68h1.07l0.07,1.03h0.03c0.33-0.59,1.1-1.17,2.2-1.17
				c0.92,0,2.35,0.51,2.35,2.65v3.72h-1.21v-3.59c0-1-0.4-1.84-1.54-1.84c-0.8,0-1.42,0.53-1.62,1.16
				c-0.06,0.14-0.08,0.33-0.08,0.53v3.74h-1.21V-217.47z"/>
			<path class="st0" d="M-993.65-216.09c0,2.3-1.7,3.31-3.31,3.31c-1.8,0-3.19-1.23-3.19-3.2c0-2.08,1.46-3.31,3.3-3.31
				C-994.94-219.29-993.65-218-993.65-216.09z M-998.93-216.03c0,1.36,0.84,2.39,2.02,2.39c1.15,0,2.02-1.02,2.02-2.42
				c0-1.05-0.56-2.39-1.99-2.39C-998.31-218.45-998.93-217.21-998.93-216.03z"/>
			<path class="st0" d="M-991.75-219.15l1.31,3.5c0.22,0.57,0.4,1.08,0.54,1.59h0.04c0.15-0.51,0.34-1.03,0.56-1.59l1.29-3.5h1.26
				l-2.61,6.23h-1.15l-2.53-6.23H-991.75z"/>
			<path class="st0" d="M-981.98-212.93l-0.1-0.78h-0.04c-0.37,0.49-1.09,0.93-2.03,0.93c-1.35,0-2.03-0.89-2.03-1.79
				c0-1.5,1.43-2.33,4-2.32v-0.13c0-0.51-0.15-1.44-1.51-1.44c-0.62,0-1.26,0.18-1.73,0.46l-0.27-0.75
				c0.55-0.33,1.35-0.55,2.19-0.55c2.03,0,2.53,1.3,2.53,2.55v2.33c0,0.54,0.03,1.07,0.11,1.49H-981.98z M-982.16-216.11
				c-1.32-0.03-2.82,0.19-2.82,1.4c0,0.73,0.52,1.08,1.14,1.08c0.87,0,1.42-0.51,1.61-1.04c0.04-0.12,0.07-0.24,0.07-0.36V-216.11z"
				/>
			<path class="st0" d="M-977.63-220.94v1.79h1.73v0.86h-1.73v3.36c0,0.77,0.23,1.21,0.91,1.21c0.32,0,0.55-0.04,0.7-0.08l0.05,0.85
				c-0.23,0.09-0.6,0.15-1.07,0.15c-0.56,0-1.02-0.17-1.31-0.48c-0.34-0.33-0.47-0.89-0.47-1.62v-3.4h-1.03v-0.86h1.03v-1.49
				L-977.63-220.94z"/>
			<path class="st0" d="M-973.19-220.9c0.01,0.39-0.29,0.69-0.77,0.69c-0.43,0-0.73-0.31-0.73-0.69c0-0.4,0.32-0.71,0.76-0.71
				C-973.48-221.61-973.19-221.3-973.19-220.9z M-974.54-212.93v-6.23h1.21v6.23H-974.54z"/>
			<path class="st0" d="M-970.86-219.15l1.31,3.5c0.22,0.57,0.4,1.08,0.54,1.59h0.04c0.15-0.51,0.34-1.03,0.56-1.59l1.29-3.5h1.26
				l-2.61,6.23h-1.15l-2.53-6.23H-970.86z"/>
			<path class="st0" d="M-964.18-215.83c0.03,1.53,1.07,2.16,2.28,2.16c0.87,0,1.39-0.14,1.84-0.32l0.21,0.81
				c-0.43,0.18-1.15,0.39-2.21,0.39c-2.05,0-3.27-1.26-3.27-3.14c0-1.88,1.18-3.36,3.12-3.36c2.17,0,2.75,1.79,2.75,2.93
				c0,0.23-0.03,0.41-0.04,0.53H-964.18z M-960.63-216.65c0.01-0.72-0.32-1.84-1.68-1.84c-1.22,0-1.76,1.05-1.86,1.84H-960.63z"/>
		</g>
		<g>
			<path class="st0" d="M-938.58-213.21c-0.44,0.21-1.32,0.41-2.45,0.41c-2.61,0-4.58-1.54-4.58-4.39c0-2.71,1.97-4.55,4.84-4.55
				c1.15,0,1.88,0.23,2.2,0.39l-0.29,0.91c-0.45-0.21-1.1-0.36-1.87-0.36c-2.17,0-3.62,1.3-3.62,3.58c0,2.12,1.31,3.49,3.56,3.49
				c0.73,0,1.47-0.14,1.95-0.36L-938.58-213.21z"/>
			<path class="st0" d="M-931.25-216.09c0,2.3-1.7,3.31-3.31,3.31c-1.8,0-3.19-1.23-3.19-3.2c0-2.08,1.46-3.31,3.3-3.31
				C-932.55-219.29-931.25-218-931.25-216.09z M-936.53-216.03c0,1.36,0.84,2.39,2.02,2.39c1.15,0,2.02-1.02,2.02-2.42
				c0-1.05-0.56-2.39-1.99-2.39C-935.91-218.45-936.53-217.21-936.53-216.03z"/>
			<path class="st0" d="M-929.73-217.47c0-0.64-0.01-1.17-0.05-1.68h1.07l0.07,1.03h0.03c0.33-0.59,1.1-1.17,2.2-1.17
				c0.92,0,2.35,0.51,2.35,2.65v3.72h-1.21v-3.59c0-1-0.4-1.84-1.54-1.84c-0.8,0-1.42,0.53-1.62,1.16
				c-0.05,0.14-0.08,0.33-0.08,0.53v3.74h-1.21V-217.47z"/>
			<path class="st0" d="M-922.26-214.09c0.36,0.22,0.99,0.45,1.59,0.45c0.88,0,1.29-0.41,1.29-0.93c0-0.54-0.34-0.84-1.24-1.14
				c-1.2-0.4-1.76-1.02-1.76-1.76c0-1,0.87-1.83,2.3-1.83c0.67,0,1.26,0.18,1.64,0.39l-0.3,0.82c-0.26-0.15-0.74-0.36-1.36-0.36
				c-0.71,0-1.11,0.39-1.11,0.85c0,0.51,0.4,0.75,1.26,1.05c1.15,0.41,1.75,0.95,1.75,1.88c0,1.09-0.91,1.87-2.49,1.87
				c-0.73,0-1.4-0.17-1.87-0.42L-922.26-214.09z"/>
			<path class="st0" d="M-915.2-220.94v1.79h1.73v0.86h-1.73v3.36c0,0.77,0.23,1.21,0.91,1.21c0.32,0,0.55-0.04,0.7-0.08l0.05,0.85
				c-0.23,0.09-0.6,0.15-1.07,0.15c-0.56,0-1.02-0.17-1.31-0.48c-0.34-0.33-0.47-0.89-0.47-1.62v-3.4h-1.03v-0.86h1.03v-1.49
				L-915.2-220.94z"/>
			<path class="st0" d="M-912.1-217.21c0-0.73-0.01-1.36-0.05-1.94h1.06l0.04,1.22h0.05c0.3-0.84,1.03-1.36,1.84-1.36
				c0.14,0,0.23,0.01,0.34,0.04v1.07c-0.12-0.03-0.25-0.04-0.41-0.04c-0.85,0-1.46,0.6-1.62,1.45c-0.03,0.15-0.05,0.33-0.05,0.53
				v3.32h-1.2V-217.21z"/>
			<path class="st0" d="M-902.04-214.63c0,0.64,0.01,1.21,0.06,1.7h-1.07l-0.07-1.02h-0.03c-0.32,0.5-1.02,1.16-2.2,1.16
				c-1.04,0-2.3-0.54-2.3-2.73v-3.64h1.21v3.45c0,1.18,0.38,1.98,1.48,1.98c0.81,0,1.37-0.53,1.59-1.03
				c0.07-0.17,0.11-0.37,0.11-0.58v-3.82h1.21V-214.63z"/>
			<path class="st0" d="M-895.29-213.16c-0.32,0.15-1.02,0.36-1.91,0.36c-2.01,0-3.31-1.27-3.31-3.18c0-1.92,1.4-3.31,3.57-3.31
				c0.71,0,1.35,0.17,1.68,0.32l-0.27,0.87c-0.29-0.15-0.74-0.3-1.4-0.3c-1.53,0-2.35,1.05-2.35,2.35c0,1.44,0.99,2.33,2.31,2.33
				c0.69,0,1.14-0.17,1.48-0.31L-895.29-213.16z"/>
			<path class="st0" d="M-892.24-220.94v1.79h1.73v0.86h-1.73v3.36c0,0.77,0.23,1.21,0.91,1.21c0.32,0,0.55-0.04,0.7-0.08l0.05,0.85
				c-0.23,0.09-0.6,0.15-1.07,0.15c-0.56,0-1.02-0.17-1.31-0.48c-0.34-0.33-0.47-0.89-0.47-1.62v-3.4h-1.03v-0.86h1.03v-1.49
				L-892.24-220.94z"/>
			<path class="st0" d="M-887.8-220.9c0.01,0.39-0.29,0.69-0.77,0.69c-0.43,0-0.73-0.31-0.73-0.69c0-0.4,0.32-0.71,0.76-0.71
				C-888.09-221.61-887.8-221.3-887.8-220.9z M-889.15-212.93v-6.23h1.21v6.23H-889.15z"/>
			<path class="st0" d="M-885.46-219.15l1.31,3.5c0.22,0.57,0.4,1.08,0.54,1.59h0.04c0.15-0.51,0.34-1.03,0.56-1.59l1.29-3.5h1.26
				l-2.61,6.23h-1.15l-2.53-6.23H-885.46z"/>
			<path class="st0" d="M-878.78-215.83c0.03,1.53,1.07,2.16,2.28,2.16c0.87,0,1.39-0.14,1.84-0.32l0.21,0.81
				c-0.43,0.18-1.15,0.39-2.21,0.39c-2.05,0-3.27-1.26-3.27-3.14c0-1.88,1.18-3.36,3.12-3.36c2.17,0,2.75,1.79,2.75,2.93
				c0,0.23-0.03,0.41-0.04,0.53H-878.78z M-875.24-216.65c0.01-0.72-0.32-1.84-1.68-1.84c-1.22,0-1.76,1.05-1.86,1.84H-875.24z"/>
		</g>
		<g>
			<path class="st0" d="M-852.76-213.21c-0.44,0.21-1.32,0.41-2.45,0.41c-2.61,0-4.58-1.54-4.58-4.39c0-2.71,1.97-4.55,4.84-4.55
				c1.15,0,1.88,0.23,2.2,0.39l-0.29,0.91c-0.45-0.21-1.1-0.36-1.87-0.36c-2.17,0-3.62,1.3-3.62,3.58c0,2.12,1.31,3.49,3.56,3.49
				c0.73,0,1.47-0.14,1.95-0.36L-852.76-213.21z"/>
			<path class="st0" d="M-845.43-216.09c0,2.3-1.7,3.31-3.31,3.31c-1.8,0-3.19-1.23-3.19-3.2c0-2.08,1.46-3.31,3.3-3.31
				C-846.73-219.29-845.43-218-845.43-216.09z M-850.71-216.03c0,1.36,0.84,2.39,2.02,2.39c1.15,0,2.02-1.02,2.02-2.42
				c0-1.05-0.56-2.39-1.99-2.39S-850.71-217.21-850.71-216.03z"/>
			<path class="st0" d="M-843.91-217.47c0-0.64-0.01-1.17-0.05-1.68h1.07l0.07,1.03h0.03c0.33-0.59,1.1-1.17,2.2-1.17
				c0.92,0,2.35,0.51,2.35,2.65v3.72h-1.21v-3.59c0-1-0.4-1.84-1.54-1.84c-0.8,0-1.42,0.53-1.62,1.16
				c-0.05,0.14-0.08,0.33-0.08,0.53v3.74h-1.21V-217.47z"/>
			<path class="st0" d="M-831.54-213.16c-0.32,0.15-1.02,0.36-1.91,0.36c-2.01,0-3.31-1.27-3.31-3.18c0-1.92,1.4-3.31,3.57-3.31
				c0.71,0,1.35,0.17,1.68,0.32l-0.27,0.87c-0.29-0.15-0.74-0.3-1.4-0.3c-1.53,0-2.35,1.05-2.35,2.35c0,1.44,0.99,2.33,2.31,2.33
				c0.69,0,1.14-0.17,1.48-0.31L-831.54-213.16z"/>
			<path class="st0" d="M-829.53-215.83c0.03,1.53,1.07,2.16,2.28,2.16c0.87,0,1.39-0.14,1.84-0.32l0.21,0.81
				c-0.43,0.18-1.15,0.39-2.21,0.39c-2.05,0-3.27-1.26-3.27-3.14c0-1.88,1.18-3.36,3.12-3.36c2.17,0,2.75,1.79,2.75,2.93
				c0,0.23-0.03,0.41-0.04,0.53H-829.53z M-825.98-216.65c0.01-0.72-0.32-1.84-1.68-1.84c-1.22,0-1.76,1.05-1.86,1.84H-825.98z"/>
			<path class="st0" d="M-823.32-217.12c0-0.8-0.03-1.44-0.05-2.03h1.09l0.05,1.07h0.03c0.49-0.76,1.28-1.21,2.36-1.21
				c1.61,0,2.82,1.27,2.82,3.16c0,2.24-1.46,3.34-3.02,3.34c-0.88,0-1.65-0.36-2.05-0.98h-0.03v3.38h-1.2V-217.12z M-822.12-215.46
				c0,0.17,0.03,0.32,0.05,0.46c0.22,0.78,0.95,1.32,1.81,1.32c1.28,0,2.02-0.98,2.02-2.41c0-1.25-0.7-2.32-1.98-2.32
				c-0.82,0-1.59,0.55-1.83,1.4c-0.04,0.14-0.08,0.31-0.08,0.46V-215.46z"/>
			<path class="st0" d="M-814.04-220.94v1.79h1.73v0.86h-1.73v3.36c0,0.77,0.23,1.21,0.91,1.21c0.32,0,0.55-0.04,0.7-0.08l0.05,0.85
				c-0.23,0.09-0.6,0.15-1.07,0.15c-0.56,0-1.02-0.17-1.31-0.48c-0.34-0.33-0.47-0.89-0.47-1.62v-3.4h-1.03v-0.86h1.03v-1.49
				L-814.04-220.94z"/>
		</g>
		<ellipse class="st0" cx="-953.03" cy="-216.7" rx="3.1" ry="3.05"/>
		<ellipse class="st0" cx="-866.71" cy="-216.7" rx="3.1" ry="3.05"/>
	</g>
</g>
<g>
	<path class="st1" d="M-1034.7-206.24h-52.59c-5.35,0-9.7-4.34-9.7-9.7v-42.61c0-5.35,4.34-9.7,9.7-9.7h52.59
		c5.35,0,9.7,4.34,9.7,9.7v42.61C-1025-210.59-1029.34-206.24-1034.7-206.24z"/>
	<g>
		<path class="st0" d="M-1087.01-252.92v31.39h-4.13v-31.39H-1087.01z"/>
		<path class="st0" d="M-1057.43-222.55c-1.52,0.75-4.56,1.49-8.45,1.49c-9.02,0-15.81-5.59-15.81-15.88
			c0-9.83,6.79-16.49,16.71-16.49c3.99,0,6.5,0.84,7.6,1.4l-1,3.31c-1.57-0.75-3.8-1.3-6.46-1.3c-7.5,0-12.49,4.7-12.49,12.95
			c0,7.69,4.51,12.62,12.3,12.62c2.52,0,5.08-0.51,6.74-1.3L-1057.43-222.55z"/>
		<path class="st0" d="M-1030.89-222.55c-1.52,0.75-4.56,1.49-8.45,1.49c-9.02,0-15.81-5.59-15.81-15.88
			c0-9.83,6.79-16.49,16.71-16.49c3.99,0,6.5,0.84,7.6,1.4l-1,3.31c-1.57-0.75-3.8-1.3-6.46-1.3c-7.5,0-12.49,4.7-12.49,12.95
			c0,7.69,4.51,12.62,12.3,12.62c2.52,0,5.08-0.51,6.74-1.3L-1030.89-222.55z"/>
	</g>
</g>
<rect x="-1050" y="-130.5" class="st1" width="32" height="32"/>
<g>
	<path class="st0" d="M-1046.07-121.77v14.57h-1.92v-14.57H-1046.07z"/>
	<path class="st0" d="M-1032.35-107.68c-0.71,0.35-2.12,0.69-3.92,0.69c-4.19,0-7.34-2.59-7.34-7.37c0-4.56,3.15-7.65,7.76-7.65
		c1.85,0,3.02,0.39,3.53,0.65l-0.46,1.53c-0.73-0.35-1.76-0.61-3-0.61c-3.48,0-5.79,2.18-5.79,6.01c0,3.57,2.09,5.86,5.71,5.86
		c1.17,0,2.36-0.24,3.13-0.61L-1032.35-107.68z"/>
	<path class="st0" d="M-1020.03-107.68c-0.71,0.35-2.12,0.69-3.92,0.69c-4.19,0-7.34-2.59-7.34-7.37c0-4.56,3.15-7.65,7.76-7.65
		c1.85,0,3.02,0.39,3.53,0.65l-0.46,1.53c-0.73-0.35-1.76-0.61-3-0.61c-3.48,0-5.79,2.18-5.79,6.01c0,3.57,2.09,5.86,5.71,5.86
		c1.17,0,2.36-0.24,3.13-0.61L-1020.03-107.68z"/>
</g>
</svg>
